<svg width="18" height="18" viewBox="0 0 18 18" xmlns="http://www.w3.org/2000/svg">
  <path d="M2.07 8.002a7.004 7.004 0 0 1 5.932-5.931A1.015 1.015 0 0 1 8 2V1a1 1 0 1 1 2 0v1c0 .024 0 .047-.002.07a7.004 7.004 0 0 1 5.931 5.932L16 8h1a1 1 0 0 1 0 2h-1c-.024 0-.047 0-.07-.002a7.004 7.004 0 0 1-5.932 5.931L10 16v1a1 1 0 0 1-2 0v-1c0-.024 0-.047.002-.07a7.004 7.004 0 0 1-5.931-5.932A1.015 1.015 0 0 1 2 10H1a1 1 0 1 1 0-2h1c.024 0 .047 0 .07.002zM9 14A5 5 0 1 0 9 4a5 5 0 0 0 0 10zm0-6a1 1 0 1 1 0 2 1 1 0 0 1 0-2z" />
</svg>