<svg xmlns="http://www.w3.org/2000/svg" width="17" height="15"><g fill="#AFBED4" fill-rule="evenodd"><path d="M3.504 0C4.325 0 5 .674 5 1.496A1.5 1.5 0 1 1 3.504 0zm10 0C14.325 0 15 .674 15 1.496A1.5 1.5 0 1 1 13.504 0z"/><path fill-rule="nonzero" d="M9.218 3.935l-1.481 1.73-.148.168-.001-.002a.693.693 0 0 1-.573.306.702.702 0 0 1-.688-.568h-.01L5.931 4.53l-.14.064.703 2.395L4.457 7H2.31l.753-2.4-.16-.069L2.097 7H1l1.044-3.28s.206-.968 1.353-.95h2.12c1.146-.018 1.352.95 1.352.95l.285 1.039.595-.824h-.367V2H10v1.935h-.782zm-.002-1.221h-.273v-.276a.047.047 0 0 0-.047-.047h-.41a.047.047 0 0 0-.047.047v.276h-.274a.047.047 0 0 0-.046.047v.414c0 .025.02.047.046.047h.274v.275c0 .026.02.047.046.047h.41a.047.047 0 0 0 .048-.047v-.275h.273a.047.047 0 0 0 .046-.047V2.76a.047.047 0 0 0-.046-.047zM0 8h17v2H0z"/><path fill-rule="nonzero" d="M11.935 4.375l-1.912 2.107a.607.607 0 0 1-.816.055.522.522 0 0 1-.072-.765l2.147-2.367c.211-.195.433-.307.653-.362V3.04a1.517 1.517 0 0 1 .52-.032h2.627C17.072 3.045 17 4.37 17 4.37V7.5c0 .291-.264.532-.584.532-.327 0-.583-.24-.583-.532V4.603h-.368v9.676c0 .393-.352.72-.783.72-.44 0-.79-.327-.79-.72V8.702h-.36v5.592c-.009.386-.352.706-.783.706-.432 0-.792-.328-.792-.72l.008-9.692h-.03v-.213z"/></g></svg>