<svg width="11" height="16" xmlns="http://www.w3.org/2000/svg"><path fill="#AFBED4" d="M8.735 12.245c0 .303-.233.55-.52.55H2.787c-.287 0-.52-.247-.52-.55v-.172c0-.303.233-.55.52-.55h5.428c.287 0 .52.247.52.55v.172zm.116-8.733a.459.459 0 0 1-.454.463H7.47a.458.458 0 0 1-.454-.463c0-.256.203-.463.454-.463h.928c.25 0 .454.207.454.463zm0 1.53a.459.459 0 0 1-.454.462H7.47c-.251 0-.454-.207-.454-.463s.203-.463.454-.463h.928a.46.46 0 0 1 .454.463zm1.665 8.974c0 .732-.563 1.325-1.257 1.325H1.62c-.694 0-1.256-.593-1.256-1.325V1.71C.364.977.926.384 1.62.384h7.64c.693 0 1.256.593 1.256 1.326v12.306zM8.85 6.57a.458.458 0 0 1-.454.463H7.47a.458.458 0 0 1-.454-.463c0-.255.203-.463.454-.463h.928a.46.46 0 0 1 .454.463zm.797 7.446V1.71a.4.4 0 0 0-.389-.41H1.62a.4.4 0 0 0-.388.41v12.306a.4.4 0 0 0 .388.41h7.64a.4.4 0 0 0 .388-.41zM6.155 8.81c0 .303-.234.55-.521.55H2.778c-.288 0-.52-.247-.52-.55V3.599c0-.304.232-.55.52-.55h2.856c.287 0 .52.246.52.55v5.21zm-.582-3.317V4.245c0-.304-.233-.55-.52-.55H3.359c-.287 0-.52.246-.52.55v1.248c0 .304.233.55.52.55h1.694c.287 0 .52-.246.52-.55zM3.775 8.65c0 .046.036.084.08.084h.702c.044 0 .08-.038.08-.084v-.494h.468c.044 0 .08-.038.08-.084V7.33a.082.082 0 0 0-.08-.085h-.468v-.493c0-.047-.036-.085-.08-.085h-.702c-.044 0-.08.038-.08.085v.493h-.468a.082.082 0 0 0-.08.085v.742c0 .046.036.084.08.084h.468v.494z"/></svg>