<svg xmlns="http://www.w3.org/2000/svg" viewBox="0 0 26 26"><g fill="none"><path fill="#58A618" d="M24.975 7.029h-6.004V1.025C18.971.461 18.51 0 17.946 0H8.923c-.564 0-1.025.461-1.025 1.025v6.004H1.894c-.564 0-1.025.461-1.025 1.025v9.023c0 .564.461 1.025 1.025 1.025h6.004v6.004c0 .564.461 1.025 1.025 1.025h9.023c.564 0 1.025-.461 1.025-1.025v-6.004h6.004c.564 0 1.025-.461 1.025-1.025V8.054c0-.564-.461-1.025-1.025-1.025z"/><path fill="#C0DAA8" d="M11.034 11.445a4.63 4.63 0 0 1 6.409-4.461c-.802-.601-1.734-1.089-2.767-1.22-.395-.05-1.2-.068-2.147.428-.722.379-1.094.918-1.094.918s-.02-.625.556-1.184c.063-.061.129-.113.193-.163-.624.117-1.149.231-1.769.597-.408.24-.729.622-.985 1.215-.253.587-.205 1.285-.205 1.285s-.388-.637-.329-1.238c.01-.102.047-.194.075-.281-.563.394-.903.744-1.111 1.271-.142.359-.185.654-.052 1.286.098.469.476.851.476.851s-.537-.19-.769-.576c-.119-.198-.169-.461-.189-.609a6.68 6.68 0 0 0-.606 2.789c0 1.2.316 2.327.869 3.302a4.94 4.94 0 0 1 3.445-4.21z"/><path fill="#FFF" d="M24.691 12.156s-1.534-.47-3.345-2.608a4.455 4.455 0 0 0-.193-.213c.869.498 1.511.887 2.309.794-1.515-.344-2.186-1.603-3.517-2.115-2.563-1.018-4.445.653-4.445.653l.002.002c-.153.098-.436.273-.568.357-2.366 1.517-3.277 2.368-3.277 2.368l3.465-1.745s1.264 1.359 2.734-.066a1.59 1.59 0 0 0-1.322-.424.365.365 0 0 1-.255.628.366.366 0 0 1-.12-.712.28.28 0 0 1 .046-.016l.008-.004c.849-.231 1.42.112 1.704.362.861.883.668 1.559.531 1.912-.716 1.475-2.315 1.249-2.989 1.076a8.572 8.572 0 0 1-.236-.068 1.117 1.117 0 0 1-.074-.026l-.001.002a8.076 8.076 0 0 1-.557-.201 4.24 4.24 0 0 0-.229-.096l-.012-.005a4.622 4.622 0 0 0-6.291 4.311v.042a6.867 6.867 0 0 0 1.574 1.518l.11.074c.224.148.458.283.7.403l-.001.004a6.677 6.677 0 0 0 2.976.705c-.008-.005-.017-.009-.025-.015-.483-.382-.578-.978-.578-.978s.401.493.94.669c.478.156.872.188 1.159.16.583-.057 1.023-.268 1.437-.503a3.213 3.213 0 0 1-.398-.051 1.527 1.527 0 0 1-1.088-.85s.706.31 1.359.34c.955.044 1.456-.332 1.74-.539a3.34 3.34 0 0 0 .982-1.13 3.556 3.556 0 0 1-.354.163c-.673.267-1.628-.151-1.628-.151s.814-.037 1.572-.532c.982-.64 1.27-1.284 1.393-1.661.166-.507.197-1.059.197-1.617 0-.076-.002-.151-.004-.226a2.585 2.585 0 0 1-.122.38c-.78 1.923-3.652 2.574-6.415 1.453a7.359 7.359 0 0 1-.413-.182l.01-.082c.111-.341.359-.625.903-.45.325.109.792.234 1.2.321 2.974.616 4.165-1.548 4.299-2.064.35-1.486-.351-2.441-.509-2.633a1.714 1.714 0 0 0-.307-.33c.626.164 1.379.543 2.183 1.342 2.116 2.106 3.74 2.254 3.74 2.254z"/></g></svg>