<svg xmlns="http://www.w3.org/2000/svg" width="30" height="24"><path fill="#58A618" fill-rule="evenodd" d="M28.693 0l.826 1.57c-2.066 1.465-3.648 2.756-4.749 3.872-1.95 1.977-2.925 3.815-2.925 5.511 0 .488.124.883.378 1.185.252.305.596.456 1.032.456.871-.117 1.447-.177 1.722-.177 1.444 0 2.643.537 3.595 1.606C29.525 15.09 30 16.407 30 17.966c0 1.812-.527 3.271-1.582 4.375C27.361 23.447 25.928 24 24.115 24c-2.064 0-3.763-.774-5.092-2.321-1.332-1.545-1.997-3.609-1.997-6.19 0-2.605.894-5.29 2.685-8.058C21.499 4.663 24.493 2.186 28.693 0zM11.667 0l.828 1.57c-2.203 1.58-3.833 2.907-4.888 3.976-1.86 1.931-2.788 3.778-2.788 5.547 0 .604.172.999.516 1.185.344.211.642.316.894.316.874-.117 1.447-.177 1.722-.177 1.467 0 2.673.541 3.613 1.624.942 1.08 1.412 2.389 1.412 3.925 0 1.72-.515 3.155-1.55 4.308C10.396 23.424 8.972 24 7.16 24c-2.134 0-3.863-.774-5.181-2.321C.66 20.134 0 18.07 0 15.489c0-2.465.844-5.089 2.531-7.865C4.216 4.842 7.261 2.303 11.667 0z"/></svg>