<svg xmlns="http://www.w3.org/2000/svg" width="84" height="35"><g fill="none" fill-rule="evenodd"><path fill="#78B700" d="M42 28.2l-9.76 5.795a1 1 0 0 1-1.485-1.08l2.495-11.072-8.527-7.49a1 1 0 0 1 .568-1.748l11.301-1.048 4.49-10.424a1 1 0 0 1 1.836 0l4.49 10.424 11.301 1.048a1 1 0 0 1 .568 1.747l-8.527 7.491 2.495 11.072a1 1 0 0 1-1.486 1.08L42 28.2z"/><path fill="#A3C600" d="M11 30.98l-5.645 3.352a1 1 0 0 1-1.486-1.08l1.444-6.404L.38 22.515a1 1 0 0 1 .567-1.747l6.537-.606 2.597-6.03a1 1 0 0 1 1.836 0l2.597 6.03 6.537.606a1 1 0 0 1 .567 1.747l-4.932 4.333 1.444 6.404a1 1 0 0 1-1.486 1.08L11 30.98z"/><path fill="#58A618" d="M73 30.98l-5.645 3.352a1 1 0 0 1-1.486-1.08l1.444-6.404-4.932-4.333a1 1 0 0 1 .567-1.747l6.537-.606 2.597-6.03a1 1 0 0 1 1.836 0l2.597 6.03 6.537.606a1 1 0 0 1 .567 1.747l-4.932 4.333 1.444 6.404a1 1 0 0 1-1.486 1.08L73 30.98z"/></g></svg>