<svg width="26" height="32" xmlns="http://www.w3.org/2000/svg"><path fill="#002664" d="M17.036 1.01l6.928 4a3 3 0 0 1 1.098 4.098l-12 20.784a3 3 0 0 1-4.098 1.098l-6.928-4a3 3 0 0 1-1.098-4.098l12-20.784a3 3 0 0 1 4.098-1.098zm-1 1.732a1 1 0 0 0-1.366.366l-12 20.784a1 1 0 0 0 .366 1.366l6.928 4a1 1 0 0 0 1.366-.366l12-20.784a1 1 0 0 0-.366-1.366l-6.928-4zm-.268 4.464a1 1 0 1 1 1-1.732 1 1 0 0 1-1 1.732zm3.464 2a1 1 0 1 1 1-1.732 1 1 0 0 1-1 1.732zm-5.464 1.464a1 1 0 1 1 1-1.732 1 1 0 0 1-1 1.732zm3.464 2a1 1 0 1 1 1-1.732 1 1 0 0 1-1 1.732zm-5.464 1.464a1 1 0 1 1 1-1.732 1 1 0 0 1-1 1.732zm3.464 2a1 1 0 1 1 1-1.732 1 1 0 0 1-1 1.732zm-5.464 1.464a1 1 0 1 1 1-1.732 1 1 0 0 1-1 1.732zm3.464 2a1 1 0 1 1 1-1.732 1 1 0 0 1-1 1.732zm-5.464 1.464a1 1 0 1 1 1-1.732 1 1 0 0 1-1 1.732zm3.464 2a1 1 0 1 1 1-1.732 1 1 0 0 1-1 1.732zm-5.464 1.464a1 1 0 1 1 1-1.732 1 1 0 0 1-1 1.732zm3.464 2a1 1 0 1 1 1-1.732 1 1 0 0 1-1 1.732z"/></svg>