<svg xmlns="http://www.w3.org/2000/svg" width="258" height="128"><g fill="#AFBED4"><path d="M255.402 48h-5v-5c0-1.1-.9-2-2-2h-8c-1.1 0-2 .9-2 2v5h-5c-1.1 0-2 .9-2 2v3h-6V40h4c1.7 0 3-1.3 3-3v-6c0-1.7-1.3-3-3-3h-57v-6h9c6.1 0 11-4.9 11-11s-4.9-11-11-11h-97c-6.1 0-11 4.9-11 11s4.9 11 11 11h9v6h-57c-1.7 0-3 1.3-3 3v6c0 1.7 1.3 3 3 3h4v86c0 1.1.9 2 2 2h181c1.1 0 2-.9 2-2V55h6v3c0 1.1.9 2 2 2h5v5c0 1.1.9 2 2 2h8c1.1 0 2-.9 2-2v-5h5c1.1 0 2-.9 2-2v-8c0-1.1-.9-2-2-2zm-171-28c-5 0-9-4-9-9s4-9 9-9h97c5 0 9 4 9 9s-4 9-9 9h-97zm11 2h75v6h-75v-6zm-59 16c-.6 0-1-.4-1-1v-6c0-.6.4-1 1-1h193c.6 0 1 .4 1 1v6c0 .6-.4 1-1 1h-193zm26 88V60h36v66h-36zm161 0h-123V60c0-1.1-.9-2-2-2h-36c-1.1 0-2 .9-2 2v66h-18V40h181v18h-103c-1.1 0-2 .9-2 2v46c0 1.1.9 2 2 2h103v18zm0-20h-103V60h103v46zm32-48h-7v7h-8v-7h-7v-8h7v-7h8v7h7v8z"/><path d="M245.402 46h-2v7h-7v2h7v7h2v-7h7v-2h-7zM91.402 79h2v29h-2zM166.402 98h-3v-6h-2v6h-1v-6h-2v6h-5v-4h-2v4h-1v-4h-2v4h-1v-4h-2v4h-1v-4h-2v4h-1v-4h-2v4h-1v-4h-2v4h-4v2h34zM166.402 85h-3v-4h-2v4h-1v-4h-2v4h-5v-2h-2v2h-1v-4h-2v4h-1v-6h-2v6h-5v-4h-2v4h-1v-4h-2v4h-3v2h34zM166.402 72h-5v-3h-2v3h-1v-3h-2v3h-1v-3h-2v3h-10v-6h-2v6h-1v-6h-2v6h-1v-6h-2v6h-3v2h34zM211.402 98h-3v-6h-2v6h-1v-6h-2v6h-5v-4h-2v4h-1v-4h-2v4h-1v-4h-2v4h-1v-4h-2v4h-1v-4h-2v4h-1v-4h-2v4h-4v2h34zM211.402 85h-3v-4h-2v4h-1v-4h-2v4h-5v-2h-2v2h-1v-4h-2v4h-1v-6h-2v6h-5v-4h-2v4h-1v-4h-2v4h-3v2h34zM211.402 72h-5v-3h-2v3h-1v-3h-2v3h-1v-3h-2v3h-10v-6h-2v6h-1v-6h-2v6h-1v-6h-2v6h-3v2h34zM145.202 14h1.5V8.4h2.1V7.1h-5.7v1.3h2.1zM130.902 11.7h.5c1 0 1.8-.2 2.4-.6.6-.4.8-1 .8-1.8s-.3-1.4-.8-1.8c-.6-.3-1.4-.5-2.4-.5h-1c-.4 0-.7.1-1.1.1V14h1.6v-2.3zm0-3.4h1.2c.2 0 .3.1.5.2l.3.3c.1.1.1.3.1.5 0 .4-.1.7-.4.8-.3.1-.7.2-1.2.2h-.5v-2zm39.9 2.8c.2.2.5.4.7.6.2.2.5.5.7.8.2.3.4.5.6.8.2.3.4.5.5.7h1.8c-.5-.8-1-1.5-1.5-2.1-.5-.6-1.1-1.2-1.6-1.6.5-.5 1-1 1.5-1.6.5-.5 1-1.1 1.4-1.6h-1.9c-.4.4-.7.8-1.1 1.3-.4.5-.8.9-1.2 1.3V7.1h-1.6V14h1.6v-2.9h.1zM168.102 12.7h-3.3V11h2.7V9.7h-2.7V8.4h3.1V7.1h-4.7V14h4.9zM151.402 11.1h2.6V14h1.5V7.1h-1.5v2.6h-2.6V7.1h-1.6V14h1.6zM136.502 13.2c.3.3.7.5 1.1.7.4.2.9.2 1.3.2.5 0 .9-.1 1.4-.2.4-.2.8-.4 1.1-.7.3-.3.5-.7.7-1.1.2-.4.3-1 .3-1.6 0-.6-.1-1.1-.3-1.6-.2-.5-.4-.8-.7-1.1-.3-.3-.7-.5-1.1-.7-.4-.2-.9-.2-1.3-.2-.5 0-.9.1-1.3.2s-.8.4-1.1.7c-.3.3-.6.7-.8 1.1-.2.4-.3 1-.3 1.6 0 .6.1 1.1.3 1.6.1.4.4.8.7 1.1zm.7-3.6c.1-.3.2-.5.4-.7.2-.2.3-.4.6-.5.2-.1.5-.2.8-.2.3 0 .5.1.8.2.2.1.4.3.6.5.2.2.3.4.4.7.1.3.1.6.1.9 0 .3 0 .6-.1.9-.1.3-.2.5-.4.7-.2.2-.3.3-.6.5-.2.1-.5.2-.8.2-.3 0-.6-.1-.8-.2-.2-.1-.4-.3-.6-.5-.2-.2-.3-.4-.4-.7-.1-.3-.1-.6-.1-.9 0-.3 0-.6.1-.9zm-39.4 2.3c0-.4-.1-.7-.2-1-.1-.3-.5-.5-.9-.7.5-.3.7-.7.7-1.3 0-.3 0-.6-.2-.9-.1-.2-.4-.5-.6-.6-.3-.2-.6-.3-1-.3-.3-.1-.7-.1-1.2-.1h-1.1c-.4 0-.7.1-1 .1v6.7c.4.1.8.1 1.2.2.4.1.8 0 1.1 0 1 0 1.8-.2 2.4-.6.5-.2.8-.8.8-1.5zm-4-3.6h.8c.4 0 .7.1.9.2.2.1.3.3.3.6s-.1.5-.3.6c-.2.1-.5.2-1 .2h-.8l.1-1.6zm2 4.3c-.3.1-.7.2-1.1.2h-.8V11h1c.4 0 .8.1 1 .2.2.1.4.4.4.7-.1.3-.3.6-.5.7zM103.902 12.7h-3.3V11h2.8V9.7h-2.8V8.4h3.1V7.1h-4.7V14h4.9zM113.202 13.4c.2.2.5.4.9.6.4.2.8.2 1.3.2s.9-.1 1.3-.2.7-.3.9-.6c.2-.3.4-.5.5-.9.1-.4.2-.7.2-1.1V7.1h-1.6v4.2c0 .6-.1 1-.4 1.2-.2.2-.5.3-.9.3-.2 0-.4 0-.5-.1-.2-.1-.3-.1-.4-.3-.1-.2-.2-.3-.3-.5-.1-.2-.1-.4-.1-.7V7.1h-1.6v4.3c0 .4.1.8.2 1.1.1.3.3.6.5.9zm-6.6-3.9c.6.7 1.1 1.4 1.7 2.2.5.8 1 1.6 1.5 2.3h1.3V7.1h-1.5v4.1c-.2-.4-.5-.7-.8-1.1-.3-.4-.5-.8-.8-1.1-.3-.4-.5-.7-.8-1-.3-.3-.5-.6-.7-.8h-1.3V14h1.5l-.1-4.5zm16.7 3.8c.1-.3.2-.5.3-.8h2.7c.1.3.2.5.3.8.1.3.2.5.2.7h1.7c-.3-.7-.5-1.4-.7-2.1-.2-.6-.5-1.2-.7-1.8-.2-.6-.4-1.1-.7-1.6-.2-.5-.4-1-.7-1.5h-1.5c-.2.5-.5 1-.7 1.5-.2.5-.4 1-.7 1.6-.3.6-.5 1.2-.7 1.8-.2.6-.5 1.3-.7 2.1h1.6c.1-.2.2-.5.3-.7zm.9-2.9c.1-.3.2-.5.3-.8.1-.2.2-.4.2-.6 0-.2.1-.3.1-.4 0 .1.1.2.2.4s.1.4.2.6c.1.2.2.5.3.8l.3.9h-2c.2-.3.3-.6.4-.9zM162.102 12.7h-3.4V11h2.8V9.7h-2.8V8.4h3.1V7.1h-4.7V14h5zM26.402 80h-22c-2.2 0-4 1.8-4 4v42c0 1.1.9 2 2 2h26c1.1 0 2-.9 2-2V84c0-2.2-1.8-4-4-4zm2 46h-26V84c0-1.1.9-2 2-2h22c1.1 0 2 .9 2 2v42z"/><path d="M17.402 115h8v-8h-8v8zm2-6h4v4h-4v-4zm-14-10h20V85h-20v14zm2-12h16v10h-16V87zM17.402 103h8v2h-8z"/></g></svg>