<svg width="16" height="14" xmlns="http://www.w3.org/2000/svg"><path d="M8 8a1 1 0 0 1 1 1v3a1 1 0 0 1-2 0V9a1 1 0 0 1 1-1zM3 2a1 1 0 0 1 1 1v2a1 1 0 1 1-2 0V3a1 1 0 0 1 1-1zM1.838 8a1 1 0 0 1-.18.206L1.895 8h-.056zm12.503.206A1 1 0 0 1 14.162 8h-.056l.235.206zM1.25 10H1a1 1 0 0 1-1-1V7.454A1 1 0 0 1 .341 6.7l7-6.125a1 1 0 0 1 1.318 0l7 6.125a1 1 0 0 1 .341.753V9a1 1 0 0 1-1 1h-.5v3c0 .662-.274.994-.821.994H2.028c-.519 0-.778-.332-.778-.994v-3zM8 2.658l-6 5.25V8h2v4h8V8h2v-.092l-6-5.25z" fill="#FFF"/></svg>