
<svg width="24px" height="30px" viewBox="0 0 24 30" version="1.1" xmlns="http://www.w3.org/2000/svg" xmlns:xlink="http://www.w3.org/1999/xlink">
    <!-- Generator: Sketch 50 (54983) - http://www.bohemiancoding.com/sketch -->
    <desc>Created with Sketch.</desc>
    <defs></defs>
    <g id="Design" stroke="none" stroke-width="1" fill="none" fill-rule="evenodd">
        <g id="Home_1024" transform="translate(-398.000000, -855.000000)" fill="#AFBED4">
            <g id="Group-25" transform="translate(398.000000, 855.000000)">
                <path d="M2,1.99983629 L2,28 L21,28 C21.5522847,28 22,27.5522847 22,27 L22,2.99983629 C22,2.44755154 21.5522847,1.99983629 21,1.99983629 L2,1.99983629 Z M0,-0.000163713414 L21,-0.000163713414 C22.6568542,-0.000163713414 24,1.34298204 24,2.99983629 L24,27 C24,28.6568542 22.6568542,30 21,30 L0,30 L0,-0.000163713414 Z" id="Rectangle-6" fill-rule="nonzero"></path>
                <rect id="Rectangle-12" x="7" y="19" width="10" height="2"></rect>
                <rect id="Rectangle-12" x="7" y="16" width="10" height="2"></rect>
                <rect id="Rectangle-12" x="7" y="13" width="10" height="2"></rect>
                <rect id="Rectangle-12" x="7" y="22" width="6" height="2"></rect>
            </g>
        </g>
    </g>
</svg>