<svg xmlns="http://www.w3.org/2000/svg" viewBox="0 0 96 37"><g fill="none" fill-rule="evenodd"><path fill="#002664" fill-rule="nonzero" d="M6.098 25.371c-.996 0-1.987-.031-2.974-.092a20.989 20.989 0 0 1-3.078-.432V7.241a26.271 26.271 0 0 1 2.751-.354 35.245 35.245 0 0 1 2.777-.118c1.153 0 2.214.083 3.183.249.969.166 1.803.45 2.502.852a4.47 4.47 0 0 1 1.638 1.585c.393.655.589 1.463.589 2.423 0 1.45-.699 2.594-2.096 3.432 1.153.437 1.939 1.031 2.358 1.782.419.751.629 1.598.629 2.542 0 1.904-.694 3.336-2.083 4.297-1.389.96-3.454 1.44-6.196 1.44zm-2.07-11.266h1.991c1.258 0 2.157-.161 2.699-.485.541-.323.812-.843.812-1.559 0-.734-.28-1.249-.838-1.546-.559-.297-1.38-.445-2.463-.445-.35 0-.725.004-1.127.013s-.76.031-1.074.065v3.957zm0 3.118v4.69c.297.035.62.061.969.079.349.018.734.026 1.153.026 1.222 0 2.209-.174 2.961-.524.751-.349 1.127-.996 1.127-1.939 0-.838-.314-1.436-.943-1.795-.629-.358-1.529-.537-2.699-.537H4.028zM17.127 25.136V6.979h12.262v3.432h-8.174v3.563h7.257v3.354h-7.257v4.375h8.777v3.432H17.127zM45.187 25.136a91.52 91.52 0 0 0-3.799-6.157 62.523 62.523 0 0 0-4.349-5.738v11.895h-4.035V6.979h3.327a32.207 32.207 0 0 1 1.913 2.122c.698.838 1.41 1.734 2.135 2.685a93.853 93.853 0 0 1 2.162 2.961 148.714 148.714 0 0 1 2.017 2.948V6.979h4.061v18.157h-3.432zm14.491.366c-1.275 0-2.376-.179-3.301-.537-.926-.358-1.69-.856-2.292-1.493a5.952 5.952 0 0 1-1.336-2.279c-.288-.882-.432-1.856-.432-2.921V6.979h4.087v10.952c0 .734.083 1.358.249 1.873.166.515.393.935.681 1.258.288.323.637.555 1.048.694.41.14.86.21 1.349.21.996 0 1.803-.305 2.423-.917.62-.611.93-1.651.93-3.118V6.979h4.087v11.292c0 1.066-.149 2.044-.445 2.934a6.013 6.013 0 0 1-1.362 2.293c-.612.638-1.389 1.131-2.332 1.48-.944.35-2.062.524-3.354.524z"/><path fill="#58A618" fill-rule="nonzero" d="M94.975 7.029h-6.004V1.025C88.971.461 88.51 0 87.946 0h-9.023c-.564 0-1.025.461-1.025 1.025v6.004h-6.004c-.564 0-1.025.461-1.025 1.025v9.023c0 .564.461 1.025 1.025 1.025h6.004v6.004c0 .564.461 1.025 1.025 1.025h9.023c.564 0 1.025-.461 1.025-1.025v-6.004h6.004c.564 0 1.025-.461 1.025-1.025V8.054c0-.564-.461-1.025-1.025-1.025z"/><path fill="#C0DAA8" fill-rule="nonzero" d="M81.034 11.445a4.63 4.63 0 0 1 6.409-4.461c-.802-.601-1.734-1.089-2.767-1.22-.395-.05-1.2-.068-2.147.428-.722.379-1.094.918-1.094.918s-.02-.625.556-1.184c.063-.061.129-.113.193-.163-.624.117-1.149.231-1.769.597-.408.24-.729.622-.985 1.215-.253.587-.205 1.285-.205 1.285s-.388-.637-.329-1.238c.01-.102.047-.194.075-.281-.563.394-.903.744-1.111 1.271-.142.359-.185.654-.052 1.286.098.469.476.851.476.851s-.537-.19-.769-.576c-.119-.198-.169-.461-.189-.609a6.68 6.68 0 0 0-.606 2.789c0 1.2.316 2.327.869 3.302a4.94 4.94 0 0 1 3.445-4.21z"/><path fill="#FFF" fill-rule="nonzero" d="M94.691 12.156s-1.534-.47-3.345-2.608a4.455 4.455 0 0 0-.193-.213c.869.498 1.511.887 2.309.794-1.515-.344-2.186-1.603-3.517-2.115-2.563-1.018-4.445.653-4.445.653l.002.002c-.153.098-.436.273-.568.357-2.366 1.517-3.277 2.368-3.277 2.368l3.465-1.745s1.264 1.359 2.734-.066a1.59 1.59 0 0 0-1.322-.424.365.365 0 0 1-.255.628.366.366 0 0 1-.12-.712.28.28 0 0 1 .046-.016l.008-.004c.849-.231 1.42.112 1.704.362.861.883.668 1.559.531 1.912-.716 1.475-2.315 1.249-2.989 1.076a8.572 8.572 0 0 1-.236-.068 1.117 1.117 0 0 1-.074-.026l-.001.002a8.076 8.076 0 0 1-.557-.201 4.24 4.24 0 0 0-.229-.096l-.012-.005a4.622 4.622 0 0 0-6.291 4.311v.042a6.867 6.867 0 0 0 1.574 1.518l.11.074c.224.148.458.283.7.403l-.001.004a6.677 6.677 0 0 0 2.976.705c-.008-.005-.017-.009-.025-.015-.483-.382-.578-.978-.578-.978s.401.493.94.669c.478.156.872.188 1.159.16.583-.057 1.023-.268 1.437-.503a3.213 3.213 0 0 1-.398-.051 1.527 1.527 0 0 1-1.088-.85s.706.31 1.359.34c.955.044 1.456-.332 1.74-.539a3.34 3.34 0 0 0 .982-1.13 3.556 3.556 0 0 1-.354.163c-.673.267-1.628-.151-1.628-.151s.814-.037 1.572-.532c.982-.64 1.27-1.284 1.393-1.661.166-.507.197-1.059.197-1.617 0-.076-.002-.151-.004-.226a2.585 2.585 0 0 1-.122.38c-.78 1.923-3.652 2.574-6.415 1.453a7.359 7.359 0 0 1-.413-.182l.01-.082c.111-.341.359-.625.903-.45.325.109.792.234 1.2.321 2.974.616 4.165-1.548 4.299-2.064.35-1.486-.351-2.441-.509-2.633a1.714 1.714 0 0 0-.307-.33c.626.164 1.379.543 2.183 1.342 2.116 2.106 3.74 2.254 3.74 2.254z"/><path fill="#58A618" d="M0 36.271V27.96h63.692a6.9 6.9 0 0 0 6.868-6.234v8.152a6.394 6.394 0 0 1-6.394 6.394H51.362l-.043-.001H0z"/><path fill="#FFF" fill-rule="nonzero" d="M10.263 34.401a23.53 23.53 0 0 0-.164-.49l-.175-.501H8.136l-.174.502c-.057.168-.111.331-.162.489H6.73c.172-.493.335-.949.49-1.367a43.53 43.53 0 0 1 .891-2.235c.143-.332.293-.657.447-.974h.976a33.832 33.832 0 0 1 .885 2.027c.148.37.3.764.454 1.182.155.418.318.874.491 1.367h-1.101zm-1.238-3.539a9.39 9.39 0 0 1-.101.271l-.151.397-.19.495c-.07.18-.141.369-.213.567h1.308l-.203-.569a21.313 21.313 0 0 0-.187-.496l-.155-.396c-.044-.115-.081-.204-.108-.269zm6.942-1.09c.682 0 1.206.12 1.571.36s.548.633.548 1.179c0 .55-.185.947-.555 1.192-.37.244-.898.366-1.584.366h-.323v1.532h-1.03v-4.51a5.7 5.7 0 0 1 .713-.092c.251-.018.471-.027.66-.027zm.066.879a3.2 3.2 0 0 0-.221.007c-.073.004-.135.009-.188.013v1.321h.323c.357 0 .625-.048.805-.145.18-.097.271-.277.271-.541a.653.653 0 0 0-.069-.317.517.517 0 0 0-.198-.201.907.907 0 0 0-.314-.106 2.44 2.44 0 0 0-.409-.031zm9.811 1.459c0 .392-.058.736-.175 1.033a2.121 2.121 0 0 1-.479.746c-.202.2-.444.351-.723.452-.28.101-.58.152-.901.152-.313 0-.607-.051-.885-.152a2.037 2.037 0 0 1-.726-.452c-.207-.2-.37-.449-.489-.746a2.767 2.767 0 0 1-.178-1.033c0-.392.062-.736.185-1.033.123-.297.289-.547.498-.749.209-.202.451-.354.726-.456a2.5 2.5 0 0 1 .868-.152c.312 0 .607.051.885.152.277.101.519.253.726.456.207.202.37.452.489.749s.179.641.179 1.033zm-3.492 0c0 .224.027.427.082.608.055.181.134.336.238.465.103.13.23.23.38.301.15.07.321.106.515.106.189 0 .36-.035.512-.106.152-.07.279-.171.383-.301a1.4 1.4 0 0 0 .238-.465c.055-.181.083-.383.083-.608a2.12 2.12 0 0 0-.083-.611 1.373 1.373 0 0 0-.238-.469 1.033 1.033 0 0 0-.383-.3 1.211 1.211 0 0 0-.512-.106 1.091 1.091 0 0 0-.895.413c-.103.13-.183.286-.238.469a2.086 2.086 0 0 0-.082.604zM32.737 29.825v.878h-1.38v3.698h-1.03v-3.698h-1.38v-.878h3.79zM38.798 29.825h1.03v4.576h-1.03V32.46h-1.73v1.941h-1.03v-4.576h1.03v1.75h1.73zM43.525 34.401v-4.576h3.09v.865h-2.06v.898h1.829v.845h-1.829v1.103h2.212v.865zM50.167 34.401v-4.576h3.09v.865h-2.06v.898h1.829v.845h-1.829v1.103h2.212v.865zM59.506 34.401a8.206 8.206 0 0 0-.328-.483 10.5 10.5 0 0 0-.407-.523 7.552 7.552 0 0 0-.456-.505 4.936 4.936 0 0 0-.476-.427v1.938h-1.03v-4.576h1.03v1.72c.265-.278.534-.569.807-.873l.757-.847h1.222a31.473 31.473 0 0 1-1.935 2.103 7.83 7.83 0 0 1 1.059 1.087c.34.419.667.881.981 1.386h-1.224z"/></g></svg>