<svg xmlns="http://www.w3.org/2000/svg" id="logo-plus" viewBox="0 0 26 26">
  <g fill="none">
    <path fill="#58A618" d="M24.975,7.029 L18.971,7.029 L18.971,1.025 C18.971,0.461 18.51,0 17.946,0 L8.923,0 C8.359,0 7.898,0.461 7.898,1.025 L7.898,7.029 L1.894,7.029 C1.33,7.029 0.869,7.49 0.869,8.054 L0.869,17.077 C0.869,17.641 1.33,18.102 1.894,18.102 L7.898,18.102 L7.898,24.106 C7.898,24.67 8.359,25.131 8.923,25.131 L17.946,25.131 C18.51,25.131 18.971,24.67 18.971,24.106 L18.971,18.102 L24.975,18.102 C25.539,18.102 26,17.641 26,17.077 L26,8.054 C26,7.49 25.539,7.029 24.975,7.029 Z"/>
    <path fill="#C0DAA8" d="M11.034,11.445 C11.031,11.383 11.03,11.321 11.03,11.258 C11.03,8.701 13.103,6.628 15.66,6.628 C16.292,6.628 16.894,6.755 17.443,6.984 C16.641,6.383 15.709,5.895 14.676,5.764 C14.281,5.714 13.476,5.696 12.529,6.192 C11.807,6.571 11.435,7.11 11.435,7.11 C11.435,7.11 11.415,6.485 11.991,5.926 C12.054,5.865 12.12,5.813 12.184,5.763 C11.56,5.88 11.035,5.994 10.415,6.36 C10.007,6.6 9.686,6.982 9.43,7.575 C9.177,8.162 9.225,8.86 9.225,8.86 C9.225,8.86 8.837,8.223 8.896,7.622 C8.906,7.52 8.943,7.428 8.971,7.341 C8.408,7.735 8.068,8.085 7.86,8.612 C7.718,8.971 7.675,9.266 7.808,9.898 C7.906,10.367 8.284,10.749 8.284,10.749 C8.284,10.749 7.747,10.559 7.515,10.173 C7.396,9.975 7.346,9.712 7.326,9.564 C6.937,10.413 6.72,11.358 6.72,12.353 C6.72,13.553 7.036,14.68 7.589,15.655 C7.791,13.663 9.178,12.021 11.034,11.445 Z"/>
    <path fill="#FFF" d="M24.691,12.156 C24.691,12.156 23.157,11.686 21.346,9.548 C21.283,9.473 21.218,9.403 21.153,9.335 C22.022,9.833 22.664,10.222 23.462,10.129 C21.947,9.785 21.276,8.526 19.945,8.014 C17.382,6.996 15.5,8.667 15.5,8.667 L15.502,8.669 C15.349,8.767 15.066,8.942 14.934,9.026 C12.568,10.543 11.657,11.394 11.657,11.394 L15.122,9.649 C15.122,9.649 16.386,11.008 17.856,9.583 C17.784,9.514 17.685,9.432 17.557,9.357 C17.314,9.216 16.975,9.103 16.534,9.159 C16.602,9.225 16.645,9.318 16.645,9.421 C16.645,9.623 16.481,9.787 16.279,9.787 C16.077,9.787 15.913,9.623 15.913,9.421 C15.913,9.261 16.016,9.125 16.159,9.075 C16.174,9.068 16.19,9.063 16.205,9.059 C16.208,9.058 16.21,9.056 16.213,9.055 C17.062,8.824 17.633,9.167 17.917,9.417 C18.778,10.3 18.585,10.976 18.448,11.329 C17.732,12.804 16.133,12.578 15.459,12.405 L15.459,12.405 C15.378,12.383 15.299,12.36 15.223,12.337 C15.176,12.322 15.149,12.311 15.149,12.311 C15.149,12.311 15.149,12.313 15.148,12.313 C14.926,12.242 14.732,12.169 14.591,12.112 C14.516,12.078 14.44,12.046 14.362,12.016 C14.355,12.013 14.35,12.011 14.35,12.011 C13.832,11.811 13.27,11.7 12.681,11.7 C10.128,11.7 8.059,13.77 8.059,16.322 C8.059,16.336 8.059,16.35 8.059,16.364 C8.505,16.955 9.034,17.468 9.633,17.882 C9.669,17.907 9.706,17.931 9.743,17.956 C9.967,18.104 10.201,18.239 10.443,18.359 L10.442,18.363 C11.338,18.811 12.348,19.065 13.418,19.068 C13.41,19.063 13.401,19.059 13.393,19.053 C12.91,18.671 12.815,18.075 12.815,18.075 C12.815,18.075 13.216,18.568 13.755,18.744 C14.233,18.9 14.627,18.932 14.914,18.904 C15.497,18.847 15.937,18.636 16.351,18.401 C16.229,18.394 16.084,18.375 15.953,18.35 C15.149,18.197 14.865,17.5 14.865,17.5 C14.865,17.5 15.571,17.81 16.224,17.84 C17.179,17.884 17.68,17.508 17.964,17.301 C18.368,17.007 18.704,16.624 18.946,16.171 C18.839,16.228 18.72,16.283 18.592,16.334 C17.919,16.601 16.964,16.183 16.964,16.183 C16.964,16.183 17.778,16.146 18.536,15.651 C19.518,15.011 19.806,14.367 19.929,13.99 C20.095,13.483 20.126,12.931 20.126,12.373 C20.126,12.297 20.124,12.222 20.122,12.147 C20.091,12.276 20.051,12.403 20,12.527 C19.22,14.45 16.348,15.101 13.585,13.98 C13.444,13.923 13.306,13.862 13.172,13.798 L13.182,13.716 C13.293,13.375 13.541,13.091 14.085,13.266 C14.41,13.375 14.877,13.5 15.285,13.587 C18.259,14.203 19.45,12.039 19.584,11.523 C19.934,10.037 19.233,9.082 19.075,8.89 C18.981,8.761 18.878,8.648 18.768,8.56 C19.394,8.724 20.147,9.103 20.951,9.902 C23.067,12.008 24.691,12.156 24.691,12.156 Z"/>
  </g>
</svg>