<svg xmlns="http://www.w3.org/2000/svg" width="71" height="91"><path fill="#AFBED4" d="M15.418 15h-3c-1.1 0-2-.9-2-2V4c0-2.2 1.8-4 4-4h42c2.2 0 4 1.8 4 4v9c0 1.1-.9 2-2 2h-3v2.1c0 .6.3 1.1.7 1.5l10.8 9.4c2.2 1.9 3.5 4.7 3.5 7.6V81c0 5.5-4.5 10-10 10h-50c-5.5 0-10-4.5-10-10V35.6c0-2.9 1.3-5.7 3.5-7.6l10.9-9.4c.4-.4.7-.9.7-1.5V15h-.1zm2 0v2.1c0 1.2-.5 2.3-1.4 3l-10.8 9.4c-1.8 1.5-2.8 3.7-2.8 6.1V81c0 4.4 3.6 8 8 8h50c4.4 0 8-3.6 8-8V35.6c0-2.3-1-4.5-2.8-6l-10.9-9.4c-.9-.8-1.4-1.9-1.4-3V15h-35.9zm35-13h-4v9h-2V2h-4v9h-2V2h-4v9h-2V2h-4v9h-2V2h-4v9h-2V2h-4v9h-2V2h-2c-1.1 0-2 .9-2 2v9h46V4c0-1.1-.9-2-2-2h-2v9h-2V2zm-42 39h50c1.1 0 2 .9 2 2v28c0 1.1-.9 2-2 2h-50c-1.1 0-2-.9-2-2V43c0-1.1.9-2 2-2zm0 2v28h50V43h-50zm17 10.1h3.1V50c0-1.1.9-2 2-2h3.8c1.1 0 2 .9 2 2v3.1h3.1c1.1 0 2 .9 2 2v3.8c0 1.1-.9 2-2 2h-3.1V64c0 1.1-.9 2-2 2h-3.8c-1.1 0-2-.9-2-2v-3.1h-3.1c-1.1 0-2-.9-2-2v-3.8c0-1.1.9-2 2-2zm0 2v3.8h5.1V64h3.8v-5.1h5.1v-3.8h-5.1V50h-3.8v5.1h-5.1z"/></svg>