<svg xmlns="http://www.w3.org/2000/svg" viewBox="0 0 313 136"><g fill="none" fill-rule="evenodd"><path d="M100.5 92.217c-3.8-2.2-8.7-.9-10.9 2.9l-7 12.1 13.9 8 7-12.1c2.1-3.8.8-8.7-3-10.9zM194 114.117v5h36v-5h-3zM191 107.117v5h36v-5h-32zM154.1 98.117h6.8v-7.1h7.1v-6.8h-7.1v-7.1h-6.8v7.1H147v6.8h7.1zM195 100.117v5h36v-5h-2z"/><path d="M116 108.117h73v-1c0-1.1.9-2 2-2h2v-5c-1.1 0-2-.9-2-2v-5c0-1.1.9-2 2-2h5v-25h-82v42zm29-23.9c0-1.1.9-2 2-2h5.1v-5.1c0-1.1.9-2 2-2h6.9c1.1 0 2 .9 2 2v5.1h5.1c1.1 0 2 .9 2 2v6.9c0 1.1-.9 2-2 2H163v5c0 1.1-.9 2-2 2h-6.9c-1.1 0-2-.9-2-2v-5.1H147c-1.1 0-2-.9-2-2v-6.8zm-63.4 24.8l-7 12.1c-2.2 3.8-.9 8.7 2.9 10.9 3.8 2.2 8.7.9 10.9-2.9l7-12.1-13.8-8zm-68.6 16.1c0-3.3 1.6-6.2 4-8h-7c-4.4 0-8 3.6-8 8s3.6 8 8 8h7c-2.4-1.8-4-4.7-4-8zm40-8H39v16h14c4.4 0 8-3.6 8-8s-3.6-8-8-8z"/><path d="M37 117.117H23c-4.4 0-8 3.6-8 8s3.6 8 8 8h14v-16zm156 9h1v-5c-1.1 0-2-.9-2-2v-5h-1c-1.1 0-2-.9-2-2v-2h-73c-1.1 0-2-.9-2-2v-42c0-1.1.9-2 2-2h82c1.1 0 2 .9 2 2v25h7v-38.5c0-3.5-1.6-6.9-4.3-9.2l-19.3-16.2a4.1 4.1 0 0 1-1.4-3.1v-2h-50v2.1c0 1.2-.5 2.3-1.4 3.1l-19.3 16.2c-2.7 2.3-4.3 5.6-4.3 9.2v68.4c0 6.6 5.4 12 12 12h72v-5c0-1.1.9-2 2-2zm83-24.4c-3.2-2.9-7.4-4.6-12-4.6-9.9 0-18 8.1-18 18 0 4.6 1.7 8.8 4.6 12l25.4-25.4zm32 24.4v-5h-24.9c-.6 1.8-1.4 3.5-2.4 5H308zm-26-11c0-4.6-1.7-8.8-4.6-12l-25.4 25.4c3.2 2.9 7.4 4.6 12 4.6 9.9 0 18-8.1 18-18zm-2 13h-.8c-1.2 1.4-2.6 2.7-4.2 3.7v1.3h36v-5h-31zm-96-108h8v-15c0-1.7-1.3-3-3-3h-1v12h-2v-12h-4v12h-2v-12h-4v12h-2v-12h-4v12h-2v-12h-4v12h-2v-12h-4v12h-2v-12h-4v12h-2v-12h-4v12h-2v-12h-4v12h-2v-12h-4v12h-2v-12h-4v12h-2v-12h-1c-1.7 0-3 1.3-3 3v15h62z"/><path d="M193 98.117h36v-5h-36zM193 128.117v5h36v-5h-33zM196 121.117v5h36v-5h-2z"/><path fill="#AFBED4" fill-rule="nonzero" d="M311 126.117h-1v-5c0-1.1-.9-2-2-2h-24.4c.3-1.3.4-2.6.4-4 0-11-9-20-20-20s-20 9-20 20 9 20 20 20c3.2 0 6.3-.8 9-2.2v.2c0 1.1.9 2 2 2h36c1.1 0 2-.9 2-2v-5c0-1.1-.9-2-2-2zm-3-5v5h-27.3c1-1.5 1.8-3.2 2.4-5H308zm-62-6c0-9.9 8.1-18 18-18 4.6 0 8.8 1.7 12 4.6l-25.4 25.4c-2.9-3.2-4.6-7.4-4.6-12zm6 13.4l25.4-25.4c2.9 3.2 4.6 7.4 4.6 12 0 9.9-8.1 18-18 18-4.6 0-8.8-1.7-12-4.6zm59 4.6h-36v-1.3c1.6-1 3-2.3 4.2-3.7H311v5zm-164-40.1h5.1v5.1c0 1.1.9 2 2 2h6.9c1.1 0 2-.9 2-2v-5.1h5.1c1.1 0 2-.9 2-2v-6.9c0-1.1-.9-2-2-2H163v-5c0-1.1-.9-2-2-2h-6.9c-1.1 0-2 .9-2 2v5.1H147c-1.1 0-2 .9-2 2v6.9c0 1.1.9 1.9 2 1.9zm0-8.8h7.1v-7.1h6.9v7.1h7.1v6.9H161v7h-6.9v-7.1H147v-6.8z"/><path fill="#AFBED4" fill-rule="nonzero" d="M232 119.117v-5c0-1.1-.9-2-2-2h-1v-5h2c1.1 0 2-.9 2-2v-5c0-1.1-.9-2-2-2v-5c0-1.1-.9-2-2-2h-20v-38.5c0-4.1-1.8-8.1-5-10.7l-19.3-16.2c-.5-.4-.7-.9-.7-1.5v-2.1h8c1.1 0 2-.9 2-2v-15c0-2.8-2.2-5-5-5h-64c-2.8 0-5 2.2-5 5v15c0 1.1.9 2 2 2h8v2.1c0 .6-.3 1.2-.7 1.5l-19.3 16.2c-3.2 2.7-5 6.6-5 10.7v41.2c-.8-1.4-2-2.5-3.5-3.4-4.8-2.8-10.9-1.1-13.7 3.7l-15 26c-2.8 4.8-1.1 10.9 3.7 13.7 4.8 2.8 10.9 1.1 13.7-3.7l14.8-25.7v16.7c0 7.7 6.3 14 14 14h110c1.1 0 2-.9 2-2v-5h1c1.1 0 2-.9 2-2v-5c0-1.1-.9-2-2-2zm-143.6 10c-2.2 3.8-7.1 5.1-10.9 2.9-3.8-2.2-5.1-7.1-2.9-10.9l7-12.1 13.9 8-7.1 12.1zm15-26l-7 12.1-13.9-8 7-12.1c2.2-3.8 7.1-5.1 10.9-2.9 3.9 2.2 5.2 7.1 3 10.9zm126.6 11v5h-36v-5h36zm-3-2h-36v-5h36v5zm-29-21h-5c-1.1 0-2 .9-2 2v5c0 1.1.9 2 2 2v5h-2c-1.1 0-2 .9-2 2v1h-73v-42h82v25zm33 14h-36v-5h36v5zm-2-7h-36v-5h36v5zm-99-78h-8v-15c0-1.7 1.3-3 3-3h1v12h2v-12h4v12h2v-12h4v12h2v-12h4v12h2v-12h4v12h2v-12h4v12h2v-12h4v12h2v-12h4v12h2v-12h4v12h2v-12h4v12h2v-12h4v12h2v-12h1c1.7 0 3 1.3 3 3v15h-62zm-11 113c-6.6 0-12-5.4-12-12v-68.5c0-3.5 1.6-6.9 4.3-9.2l19.3-16.2c.9-.8 1.4-1.9 1.4-3.1v-2h50v2.1c0 1.2.5 2.3 1.4 3.1l19.3 16.2c2.7 2.3 4.3 5.6 4.3 9.2v38.4h-7v-25c0-1.1-.9-2-2-2h-82c-1.1 0-2 .9-2 2v42c0 1.1.9 2 2 2h73v2c0 1.1.9 2 2 2h1v5c0 1.1.9 2 2 2v5h-1c-1.1 0-2 .9-2 2v5h-72zm110 0h-36v-5h36v5zm3-7h-36v-5h36v5zm-179-11H10c-5.5 0-10 4.5-10 10s4.5 10 10 10h43c5.5 0 10-4.5 10-10s-4.5-10-10-10zm-43 18c-4.4 0-8-3.6-8-8s3.6-8 8-8h7c-2.4 1.8-4 4.7-4 8s1.6 6.2 4 8h-7zm13 0c-4.4 0-8-3.6-8-8s3.6-8 8-8h14v16H23zm30 0H39v-16h14c4.4 0 8 3.6 8 8s-3.6 8-8 8z"/></g></svg>