<?xml version="1.0" encoding="UTF-8"?>
<svg width="21px" height="15px" viewBox="0 0 21 15" version="1.1" xmlns="http://www.w3.org/2000/svg" xmlns:xlink="http://www.w3.org/1999/xlink">
    <!-- Generator: Sketch 49 (51002) - http://www.bohemiancoding.com/sketch -->
    <title>Combined Shape</title>
    <desc>Created with Sketch.</desc>
    <defs></defs>
    <g id="Brand-Guide" stroke="none" stroke-width="1" fill="none" fill-rule="evenodd">
        <g id="Paginering" transform="translate(-333.000000, -246.000000)" fill="#002664">
            <g id="Group-3" transform="translate(281.000000, 246.000000)">
                <g id="Group-2" transform="translate(36.500000, 7.500000) scale(-1, 1) translate(-36.500000, -7.500000) ">
                    <path d="M11.0623848,8.97723664 L0,8.97723664 L0,6.21164043 L11.0623848,6.21164043 L11.0623848,1.55053563 C11.0623848,1.31182436 11.147777,1.08098737 11.3031282,0.899744261 C11.6625504,0.480418418 12.2938504,0.431856881 12.7131762,0.791279032 L19.8561722,6.91384703 C19.895051,6.94717172 19.9313128,6.98343345 19.9646375,7.02231226 C20.3240596,7.4416381 20.2754981,8.07293809 19.8561722,8.43236024 L12.7131762,14.5549282 C12.5319331,14.7102795 12.3010961,14.7956716 12.0623848,14.7956716 C11.5101001,14.7956716 11.0623848,14.3479564 11.0623848,13.7956716 L11.0623848,8.97723664 Z" id="Combined-Shape"></path>
                </g>
            </g>
        </g>
    </g>
</svg>