<?xml version="1.0" encoding="UTF-8"?>
<svg width="23px" height="15px" viewBox="0 0 23 15" version="1.1" xmlns="http://www.w3.org/2000/svg" xmlns:xlink="http://www.w3.org/1999/xlink">
    <!-- Generator: Sketch 49 (51002) - http://www.bohemiancoding.com/sketch -->
    <title>Combined Shape</title>
    <desc>Created with Sketch.</desc>
    <defs></defs>
    <g id="Brand-Guide" stroke="none" stroke-width="1" fill="none" fill-rule="evenodd">
        <g id="Paginering" transform="translate(-281.000000, -246.000000)" fill="#002664">
            <g id="Group-3" transform="translate(281.000000, 246.000000)">
                <g id="Group-2" transform="translate(36.500000, 7.500000) scale(-1, 1) translate(-36.500000, -7.500000) ">
                    <path d="M70,8.29012691 C69.9596965,8.34169054 69.9137088,8.39003859 69.8621063,8.43426933 L62.716341,14.5592109 C62.5350979,14.7145622 62.3042609,14.7999543 62.0655497,14.7999543 C61.5132649,14.7999543 61.0655497,14.3522391 61.0655497,13.7999543 L61.0655497,8.97951883 L50,8.97951883 L50,6.21313142 L61.0655497,6.21313142 L61.0655497,1.55007112 C61.0655497,1.31135985 61.1509418,1.08052285 61.3062931,0.899279744 C61.6657152,0.479953901 62.2970152,0.431392364 62.716341,0.790814515 L69.8621063,6.91575613 C69.9009851,6.94908082 69.9372468,6.98534255 69.9705715,7.02422136 C69.980705,7.03604381 69.9905142,7.04803477 70,7.06018338 L70,0.5 L73,0.5 L73,14.8000002 L70,14.8000002 L70,8.29012693 Z" id="Combined-Shape"></path>
                </g>
            </g>
        </g>
    </g>
</svg>