<svg xmlns="http://www.w3.org/2000/svg" width="81" height="130"><g fill="none" fill-rule="evenodd"><path stroke="#AFBED4" stroke-width="2" d="M32 129a3 3 0 0 1-3-3v-9a1 1 0 0 1 1-1h46a1 1 0 0 1 1 1v9a3 3 0 0 1-3 3H32z"/><path fill="#AFBED4" d="M34 129h2v-10h-2zM40 129h2v-10h-2zM46 129h2v-10h-2zM52 129h2v-10h-2zM58 129h2v-10h-2zM64 129h2v-10h-2zM70 129h2v-10h-2z"/><g stroke="#AFBED4" stroke-width="2"><path d="M74.991 82.892l-42.5 11.388-1.036-3.864a1 1 0 0 1 .708-1.224l1.931-.518-1.316-4.913a3 3 0 0 0-1.587-1.922l-12.925-6.28a9 9 0 0 1-4.76-5.766L1.747 25.907a9 9 0 0 1 6.364-11.022L56.407 1.944A9 9 0 0 1 67.43 8.308l11.759 43.885a9 9 0 0 1-1.24 7.374l-8.053 11.9a3 3 0 0 0-.413 2.458L70.8 78.84l1.931-.518a1 1 0 0 1 1.225.707l1.035 3.864z"/><path d="M20.534 61.25a1 1 0 0 1-1.224-.708l-7.247-27.046a1 1 0 0 1 .707-1.225l48.296-12.94a1 1 0 0 1 1.225.706l7.247 27.046a1 1 0 0 1-.707 1.225L20.534 61.25z"/><path d="M33.83 45.184a1 1 0 0 1-1.225-.707l-.996-3.715a1 1 0 0 1 .707-1.225l3.938-1.055-1.055-3.938a1 1 0 0 1 .707-1.225l3.715-.996a1 1 0 0 1 1.225.708l1.055 3.938 3.938-1.056a1 1 0 0 1 1.225.707l.995 3.716a1 1 0 0 1-.707 1.224l-3.938 1.055 1.055 3.938a1 1 0 0 1-.707 1.225l-3.715.996a1 1 0 0 1-1.225-.707l-1.055-3.938-3.938 1.055z"/></g></g></svg>