<svg xmlns="http://www.w3.org/2000/svg" width="14" height="16">
    <g fill="#AFBED4" fill-rule="evenodd"><path d="M1 14h12a1 1 0 0 1 0 2H1a1 1 0 0 1 0-2z"/><rect width="14" height="2" rx="1"/><rect width="6" height="2" x="4" y="4" rx="1"/>
        <rect width="6" height="2" x="4" y="7" rx="1"/>
        <path d="M7 10h2a1 1 0 0 1 0 2H7a1 1 0 0 1 0-2z"/>
        <rect width="2" height="16" rx="1"/>
        <rect width="2" height="16" x="12" rx="1"/>
        <rect width="2" height="5" x="4" y="4" rx="1"/>
        <rect width="2" height="5" x="8" y="4" rx="1"/>
    </g>
</svg>