<svg xmlns="http://www.w3.org/2000/svg" width="77" height="35"><g fill="none" fill-rule="evenodd"><g transform="translate(23)"><path fill="#78B700" d="M15 35c3.766 0 15-9.889 15-20 0-8.284-6.716-15-15-15C6.716 0 0 6.716 0 15c0 10.04 11.234 20 15 20z"/><circle cx="15" cy="15" r="5" fill="#F4FBEF"/></g><g transform="translate(0 15)"><path fill="#A3C600" d="M8.571 20c2.152 0 8.572-5.65 8.572-11.429A8.571 8.571 0 1 0 0 8.571C0 14.308 6.42 20 8.571 20z"/><circle cx="8.573" cy="8.573" r="2.43" fill="#F4FBEF"/></g><g transform="translate(59 15)"><path fill="#58A618" d="M8.571 20c2.152 0 8.572-5.65 8.572-11.429A8.571 8.571 0 1 0 0 8.571C0 14.308 6.42 20 8.571 20z"/><circle cx="8.573" cy="8.573" r="2.43" fill="#F4FBEF"/></g></g></svg>