<svg width="80" height="32" xmlns="http://www.w3.org/2000/svg"><g fill="none" fill-rule="evenodd"><path d="M31.817 13.75A9.988 9.988 0 0 0 40 18a9.99 9.99 0 0 0 8.282-4.394C52.186 15.163 55 17.632 55 20c0 4-.667 8-2 12H27c-1.333-4-2-8-2-12 0-1.97 2.862-4.56 6.817-6.25zM40 16a8 8 0 1 1 0-16 8 8 0 0 1 0 16z" fill="#78B700"/><path d="M65.318 20.023c1.146 1.687 3.04 2.79 5.182 2.79 2.182 0 4.106-1.144 5.245-2.884C78.218 20.95 80 22.57 80 24.125c0 2.625-.422 5.25-1.267 7.875H62.267C61.422 29.375 61 26.75 61 24.125c0-1.293 1.812-2.992 4.318-4.102zM70.5 21.5c-2.798 0-5.067-2.35-5.067-5.25S67.702 11 70.5 11s5.067 2.35 5.067 5.25-2.269 5.25-5.067 5.25z" fill="#58A618"/><path d="M4.318 20.023c1.146 1.687 3.04 2.79 5.182 2.79 2.182 0 4.106-1.144 5.245-2.884C17.218 20.95 19 22.57 19 24.125c0 2.625-.422 5.25-1.267 7.875H1.267C.422 29.375 0 26.75 0 24.125c0-1.293 1.812-2.992 4.318-4.102zM9.5 21.5c-2.798 0-5.067-2.35-5.067-5.25S6.702 11 9.5 11s5.067 2.35 5.067 5.25S12.298 21.5 9.5 21.5z" fill="#A3C600"/></g></svg>