<svg xmlns="http://www.w3.org/2000/svg" width="10" height="12" viewBox="0 0 10 12">
  <path fill="#AFBED4" fill-rule="evenodd" d="M496.885057,3217.28137 C496.609194,3217.58555 496.23755,3217.9962 495.770115,3218.51331 C495.30268,3219.03042 494.800769,3219.60076 494.264368,3220.22433 C493.727967,3220.84791 493.187742,3221.5019 492.643678,3222.18631 C492.099614,3222.87073 491.605366,3223.53232 491.16092,3224.1711 L497,3224.1711 L497,3227 L487,3227 L487,3224.9924 C487.321841,3224.44486 487.70881,3223.85552 488.16092,3223.22433 C488.613029,3222.59315 489.08812,3221.95818 489.586207,3221.31939 C490.084294,3220.68061 490.578542,3220.06084 491.068966,3219.46008 C491.559389,3218.85931 492.011492,3218.31559 492.425287,3217.8289 L487.275862,3217.8289 L487.275862,3215 L496.885057,3215 L496.885057,3217.28137 Z" transform="translate(-487 -3215)"/>
</svg>
